<svg width="19" height="19" viewBox="0 0 19 19" fill="none" xmlns="http://www.w3.org/2000/svg">
<g clip-path="url(#clip0_103_353)">
<path d="M15.9999 3.5H13.6749C13.5009 2.65356 13.0403 1.89301 12.3709 1.34654C11.7015 0.800068 10.8641 0.501091 9.99994 0.5L8.49994 0.5C7.63579 0.501091 6.79843 0.800068 6.129 1.34654C5.45957 1.89301 4.99901 2.65356 4.82494 3.5H2.49994C2.30103 3.5 2.11026 3.57902 1.96961 3.71967C1.82896 3.86032 1.74994 4.05109 1.74994 4.25C1.74994 4.44891 1.82896 4.63968 1.96961 4.78033C2.11026 4.92098 2.30103 5 2.49994 5H3.24994V14.75C3.25113 15.7442 3.6466 16.6973 4.3496 17.4003C5.05261 18.1033 6.00574 18.4988 6.99994 18.5H11.4999C12.4941 18.4988 13.4473 18.1033 14.1503 17.4003C14.8533 16.6973 15.2487 15.7442 15.2499 14.75V5H15.9999C16.1989 5 16.3896 4.92098 16.5303 4.78033C16.6709 4.63968 16.7499 4.44891 16.7499 4.25C16.7499 4.05109 16.6709 3.86032 16.5303 3.71967C16.3896 3.57902 16.1989 3.5 15.9999 3.5ZM8.49994 2H9.99994C10.4651 2.00057 10.9188 2.14503 11.2986 2.41358C11.6785 2.68213 11.966 3.06162 12.1217 3.5H6.37819C6.53388 3.06162 6.82136 2.68213 7.20123 2.41358C7.58109 2.14503 8.03473 2.00057 8.49994 2ZM13.7499 14.75C13.7499 15.3467 13.5129 15.919 13.0909 16.341C12.669 16.7629 12.0967 17 11.4999 17H6.99994C6.4032 17 5.83091 16.7629 5.40895 16.341C4.98699 15.919 4.74994 15.3467 4.74994 14.75V5H13.7499V14.75Z" fill="#FFF5F5"/>
<path d="M7.75 13.9995C7.94891 13.9995 8.13968 13.9205 8.28033 13.7798C8.42098 13.6392 8.5 13.4484 8.5 13.2495V8.74953C8.5 8.55061 8.42098 8.35985 8.28033 8.2192C8.13968 8.07854 7.94891 7.99953 7.75 7.99953C7.55109 7.99953 7.36032 8.07854 7.21967 8.2192C7.07902 8.35985 7 8.55061 7 8.74953V13.2495C7 13.4484 7.07902 13.6392 7.21967 13.7798C7.36032 13.9205 7.55109 13.9995 7.75 13.9995Z" fill="#FFF5F5"/>
<path d="M10.7499 13.9995C10.9488 13.9995 11.1396 13.9205 11.2802 13.7798C11.4209 13.6392 11.4999 13.4484 11.4999 13.2495V8.74953C11.4999 8.55061 11.4209 8.35985 11.2802 8.2192C11.1396 8.07854 10.9488 7.99953 10.7499 7.99953C10.551 7.99953 10.3602 8.07854 10.2195 8.2192C10.0789 8.35985 9.99988 8.55061 9.99988 8.74953V13.2495C9.99988 13.4484 10.0789 13.6392 10.2195 13.7798C10.3602 13.9205 10.551 13.9995 10.7499 13.9995Z" fill="#FFF5F5"/>
</g>
<defs>
<clipPath id="clip0_103_353">
<rect width="18" height="18" fill="white" transform="translate(0.25 0.5)"/>
</clipPath>
</defs>
</svg>
