<svg width="18" height="19" viewBox="0 0 18 19" fill="none" xmlns="http://www.w3.org/2000/svg">
<g clip-path="url(#clip0_0_161)">
<path d="M4.125 13.2501C4.74632 13.2501 5.25 12.7464 5.25 12.1251C5.25 11.5038 4.74632 11.0001 4.125 11.0001C3.50368 11.0001 3 11.5038 3 12.1251C3 12.7464 3.50368 13.2501 4.125 13.2501Z" fill="#9FA6B2"/>
<path d="M14.25 2.75H3.75C2.7558 2.75119 1.80267 3.14666 1.09966 3.84966C0.396661 4.55267 0.00119089 5.5058 0 6.5L0 12.5C0.00119089 13.4942 0.396661 14.4473 1.09966 15.1503C1.80267 15.8533 2.7558 16.2488 3.75 16.25H14.25C15.2442 16.2488 16.1973 15.8533 16.9003 15.1503C17.6033 14.4473 17.9988 13.4942 18 12.5V6.5C17.9988 5.5058 17.6033 4.55267 16.9003 3.84966C16.1973 3.14666 15.2442 2.75119 14.25 2.75ZM3.75 4.25H14.25C14.8467 4.25 15.419 4.48705 15.841 4.90901C16.2629 5.33097 16.5 5.90326 16.5 6.5H1.5C1.5 5.90326 1.73705 5.33097 2.15901 4.90901C2.58097 4.48705 3.15326 4.25 3.75 4.25ZM14.25 14.75H3.75C3.15326 14.75 2.58097 14.5129 2.15901 14.091C1.73705 13.669 1.5 13.0967 1.5 12.5V8H16.5V12.5C16.5 13.0967 16.2629 13.669 15.841 14.091C15.419 14.5129 14.8467 14.75 14.25 14.75Z" fill="#9FA6B2"/>
</g>
<defs>
<clipPath id="clip0_0_161">
<rect width="18" height="18" fill="white" transform="translate(0 0.5)"/>
</clipPath>
</defs>
</svg>
