<svg width="16" height="16" viewBox="0 0 16 16" fill="none" xmlns="http://www.w3.org/2000/svg">
<g clip-path="url(#clip0_0_458)">
<path d="M12.6667 0H3.33333C2.4496 0.00105857 1.60237 0.352588 0.97748 0.97748C0.352588 1.60237 0.00105857 2.4496 0 3.33333L0 12.6667C0.00105857 13.5504 0.352588 14.3976 0.97748 15.0225C1.60237 15.6474 2.4496 15.9989 3.33333 16H12.6667C13.5504 15.9989 14.3976 15.6474 15.0225 15.0225C15.6474 14.3976 15.9989 13.5504 16 12.6667V3.33333C15.9989 2.4496 15.6474 1.60237 15.0225 0.97748C14.3976 0.352588 13.5504 0.00105857 12.6667 0V0ZM3.33333 1.33333H12.6667C13.1971 1.33333 13.7058 1.54405 14.0809 1.91912C14.456 2.29419 14.6667 2.8029 14.6667 3.33333V12.6667C14.6655 12.9637 14.5971 13.2565 14.4667 13.5233L8.358 7.41467C8.04846 7.10504 7.68096 6.85944 7.27648 6.69186C6.87201 6.52429 6.43848 6.43805 6.00067 6.43805C5.56285 6.43805 5.12933 6.52429 4.72485 6.69186C4.32038 6.85944 3.95287 7.10504 3.64333 7.41467L1.33333 9.724V3.33333C1.33333 2.8029 1.54405 2.29419 1.91912 1.91912C2.29419 1.54405 2.8029 1.33333 3.33333 1.33333ZM3.33333 14.6667C2.8029 14.6667 2.29419 14.456 1.91912 14.0809C1.54405 13.7058 1.33333 13.1971 1.33333 12.6667V11.6093L4.58533 8.35733C4.77107 8.17148 4.9916 8.02405 5.23434 7.92346C5.47707 7.82287 5.73725 7.77109 6 7.77109C6.26275 7.77109 6.52293 7.82287 6.76566 7.92346C7.0084 8.02405 7.22893 8.17148 7.41467 8.35733L13.5233 14.4667C13.2565 14.5971 12.9637 14.6655 12.6667 14.6667H3.33333Z" fill="#0B1018"/>
<path d="M10.6668 6.9998C11.1283 6.9998 11.5794 6.86295 11.9631 6.60656C12.3468 6.35017 12.6459 5.98575 12.8225 5.55939C12.9991 5.13303 13.0453 4.66388 12.9553 4.21125C12.8652 3.75863 12.643 3.34287 12.3167 3.01655C11.9904 2.69023 11.5746 2.468 11.122 2.37797C10.6694 2.28793 10.2002 2.33414 9.77384 2.51075C9.34748 2.68735 8.98306 2.98642 8.72667 3.37013C8.47028 3.75385 8.33344 4.20497 8.33344 4.66646C8.33344 5.2853 8.57927 5.8788 9.01685 6.31638C9.45444 6.75396 10.0479 6.9998 10.6668 6.9998ZM10.6668 3.66646C10.8645 3.66646 11.0579 3.72511 11.2223 3.83499C11.3868 3.94488 11.515 4.10105 11.5906 4.28378C11.6663 4.46651 11.6861 4.66757 11.6476 4.86155C11.609 5.05554 11.5137 5.23372 11.3739 5.37357C11.234 5.51342 11.0558 5.60866 10.8619 5.64725C10.6679 5.68583 10.4668 5.66603 10.2841 5.59034C10.1014 5.51466 9.94518 5.38648 9.8353 5.22203C9.72542 5.05759 9.66677 4.86425 9.66677 4.66646C9.66677 4.40125 9.77213 4.14689 9.95966 3.95936C10.1472 3.77182 10.4016 3.66646 10.6668 3.66646Z" fill="#0B1018"/>
</g>
<defs>
<clipPath id="clip0_0_458">
<rect width="16" height="16" fill="white"/>
</clipPath>
</defs>
</svg>
