<svg width="19" height="19" viewBox="0 0 19 19" fill="none" xmlns="http://www.w3.org/2000/svg">
<g clip-path="url(#clip0_103_347)">
<path d="M14.7421 1.19768L5.59814 10.3417C5.24889 10.689 4.97202 11.1022 4.78355 11.5573C4.59508 12.0124 4.49875 12.5004 4.50014 12.9929V14.0002C4.50014 14.1991 4.57915 14.3899 4.71981 14.5305C4.86046 14.6712 5.05122 14.7502 5.25014 14.7502H6.25739C6.74996 14.7516 7.23791 14.6552 7.693 14.4668C8.14809 14.2783 8.56128 14.0014 8.90864 13.6522L18.0526 4.50818C18.4909 4.0688 18.7371 3.47353 18.7371 2.85293C18.7371 2.23232 18.4909 1.63705 18.0526 1.19768C17.6069 0.771596 17.014 0.533813 16.3974 0.533813C15.7808 0.533813 15.1879 0.771596 14.7421 1.19768ZM16.9921 3.44768L7.84814 12.5917C7.42523 13.012 6.85364 13.2486 6.25739 13.2502H6.00014V12.9929C6.0017 12.3967 6.23831 11.8251 6.65864 11.4022L15.8026 2.25818C15.9628 2.10514 16.1758 2.01975 16.3974 2.01975C16.6189 2.01975 16.8319 2.10514 16.9921 2.25818C17.1496 2.41606 17.238 2.62994 17.238 2.85293C17.238 3.07591 17.1496 3.28979 16.9921 3.44768Z" fill="#1E429F"/>
<path d="M18 7.23425C17.8011 7.23425 17.6103 7.31327 17.4697 7.45392C17.329 7.59457 17.25 7.78534 17.25 7.98425V11.75H14.25C13.6533 11.75 13.081 11.9871 12.659 12.409C12.2371 12.831 12 13.4033 12 14V17H4.5C3.90326 17 3.33097 16.7629 2.90901 16.341C2.48705 15.919 2.25 15.3467 2.25 14.75V4.25C2.25 3.65326 2.48705 3.08097 2.90901 2.65901C3.33097 2.23705 3.90326 2 4.5 2H11.2815C11.4804 2 11.6712 1.92098 11.8118 1.78033C11.9525 1.63968 12.0315 1.44891 12.0315 1.25C12.0315 1.05109 11.9525 0.860322 11.8118 0.71967C11.6712 0.579018 11.4804 0.5 11.2815 0.5H4.5C3.5058 0.501191 2.55267 0.896662 1.84967 1.59967C1.14666 2.30267 0.751191 3.2558 0.75 4.25L0.75 14.75C0.751191 15.7442 1.14666 16.6973 1.84967 17.4003C2.55267 18.1033 3.5058 18.4988 4.5 18.5H13.0073C13.4999 18.5014 13.988 18.4051 14.4432 18.2166C14.8984 18.0281 15.3118 17.7513 15.6593 17.402L17.6513 15.4085C18.0006 15.0612 18.2775 14.648 18.4661 14.1929C18.6547 13.7378 18.7512 13.2499 18.75 12.7573V7.98425C18.75 7.78534 18.671 7.59457 18.5303 7.45392C18.3897 7.31327 18.1989 7.23425 18 7.23425ZM14.5988 16.3415C14.2973 16.6423 13.916 16.8505 13.5 16.9415V14C13.5 13.8011 13.579 13.6103 13.7197 13.4697C13.8603 13.329 14.0511 13.25 14.25 13.25H17.1938C17.101 13.6651 16.893 14.0457 16.5938 14.348L14.5988 16.3415Z" fill="#1E429F"/>
</g>
<defs>
<clipPath id="clip0_103_347">
<rect width="18" height="18" fill="white" transform="translate(0.75 0.5)"/>
</clipPath>
</defs>
</svg>
