<svg width="18" height="19" viewBox="0 0 18 19" fill="none" xmlns="http://www.w3.org/2000/svg">
<g clip-path="url(#clip0_0_125)">
<path d="M8.25511 2.43365L8.24986 14.0121C8.24986 14.2111 8.32888 14.4018 8.46953 14.5425C8.61018 14.6831 8.80094 14.7621 8.99986 14.7621C9.19877 14.7621 9.38953 14.6831 9.53019 14.5425C9.67084 14.4018 9.74986 14.2111 9.74986 14.0121L9.75511 2.4464L11.9391 4.63115C12.0798 4.77175 12.2705 4.85074 12.4694 4.85074C12.6682 4.85074 12.859 4.77175 12.9996 4.63115C13.1402 4.4905 13.2192 4.29977 13.2192 4.1009C13.2192 3.90202 13.1402 3.71129 12.9996 3.57065L10.5914 1.1594C10.3824 0.950313 10.1343 0.78445 9.86123 0.671287C9.58815 0.558124 9.29545 0.499878 8.99986 0.499878C8.70426 0.499878 8.41156 0.558124 8.13849 0.671287C7.86541 0.78445 7.61731 0.950313 7.40836 1.1594L5.00011 3.5684C4.8595 3.70904 4.78052 3.89977 4.78052 4.09865C4.78052 4.29752 4.8595 4.48825 5.00011 4.6289C5.14075 4.7695 5.33148 4.84849 5.53036 4.84849C5.72923 4.84849 5.91996 4.7695 6.06061 4.6289L8.25511 2.43365Z" fill="white"/>
<path d="M16.5 13.2495V16.2495C16.5 16.4484 16.421 16.6392 16.2803 16.7798C16.1397 16.9205 15.9489 16.9995 15.75 16.9995H2.25C2.05109 16.9995 1.86032 16.9205 1.71967 16.7798C1.57902 16.6392 1.5 16.4484 1.5 16.2495V13.2495C1.5 13.0506 1.42098 12.8598 1.28033 12.7192C1.13968 12.5785 0.948912 12.4995 0.75 12.4995C0.551088 12.4995 0.360322 12.5785 0.21967 12.7192C0.0790176 12.8598 0 13.0506 0 13.2495L0 16.2495C0 16.8462 0.237053 17.4185 0.65901 17.8405C1.08097 18.2624 1.65326 18.4995 2.25 18.4995H15.75C16.3467 18.4995 16.919 18.2624 17.341 17.8405C17.7629 17.4185 18 16.8462 18 16.2495V13.2495C18 13.0506 17.921 12.8598 17.7803 12.7192C17.6397 12.5785 17.4489 12.4995 17.25 12.4995C17.0511 12.4995 16.8603 12.5785 16.7197 12.7192C16.579 12.8598 16.5 13.0506 16.5 13.2495Z" fill="white"/>
</g>
<defs>
<clipPath id="clip0_0_125">
<rect width="18" height="18" fill="white" transform="translate(0 0.5)"/>
</clipPath>
</defs>
</svg>
