<svg width="18" height="19" viewBox="0 0 18 19" fill="none" xmlns="http://www.w3.org/2000/svg">
<g clip-path="url(#clip0_0_167)">
<path d="M17.25 17H3.75C3.15326 17 2.58097 16.7629 2.15901 16.341C1.73705 15.919 1.5 15.3467 1.5 14.75V1.25C1.5 1.05109 1.42098 0.860322 1.28033 0.71967C1.13968 0.579018 0.948912 0.5 0.75 0.5C0.551088 0.5 0.360322 0.579018 0.21967 0.71967C0.0790176 0.860322 0 1.05109 0 1.25L0 14.75C0.00119089 15.7442 0.396661 16.6973 1.09966 17.4003C1.80267 18.1033 2.7558 18.4988 3.75 18.5H17.25C17.4489 18.5 17.6397 18.421 17.7803 18.2803C17.921 18.1397 18 17.9489 18 17.75C18 17.5511 17.921 17.3603 17.7803 17.2197C17.6397 17.079 17.4489 17 17.25 17Z" fill="#9FA6B2"/>
<path d="M4.50012 15.5C4.69903 15.5 4.8898 15.421 5.03045 15.2803C5.1711 15.1397 5.25012 14.9489 5.25012 14.75V9.5C5.25012 9.30109 5.1711 9.11032 5.03045 8.96967C4.8898 8.82902 4.69903 8.75 4.50012 8.75C4.30121 8.75 4.11044 8.82902 3.96979 8.96967C3.82914 9.11032 3.75012 9.30109 3.75012 9.5V14.75C3.75012 14.9489 3.82914 15.1397 3.96979 15.2803C4.11044 15.421 4.30121 15.5 4.50012 15.5Z" fill="#9FA6B2"/>
<path d="M7.49988 8V14.75C7.49988 14.9489 7.5789 15.1397 7.71955 15.2803C7.8602 15.421 8.05097 15.5 8.24988 15.5C8.4488 15.5 8.63956 15.421 8.78022 15.2803C8.92087 15.1397 8.99989 14.9489 8.99989 14.75V8C8.99989 7.80109 8.92087 7.61032 8.78022 7.46967C8.63956 7.32902 8.4488 7.25 8.24988 7.25C8.05097 7.25 7.8602 7.32902 7.71955 7.46967C7.5789 7.61032 7.49988 7.80109 7.49988 8Z" fill="#9FA6B2"/>
<path d="M11.25 10.25V14.75C11.25 14.9489 11.329 15.1397 11.4697 15.2803C11.6103 15.421 11.8011 15.5 12 15.5C12.1989 15.5 12.3897 15.421 12.5303 15.2803C12.671 15.1397 12.75 14.9489 12.75 14.75V10.25C12.75 10.0511 12.671 9.86032 12.5303 9.71967C12.3897 9.57902 12.1989 9.5 12 9.5C11.8011 9.5 11.6103 9.57902 11.4697 9.71967C11.329 9.86032 11.25 10.0511 11.25 10.25Z" fill="#9FA6B2"/>
<path d="M15.0001 7.24988V14.7499C15.0001 14.9488 15.0791 15.1396 15.2198 15.2802C15.3604 15.4209 15.5512 15.4999 15.7501 15.4999C15.949 15.4999 16.1398 15.4209 16.2805 15.2802C16.4211 15.1396 16.5001 14.9488 16.5001 14.7499V7.24988C16.5001 7.05097 16.4211 6.8602 16.2805 6.71955C16.1398 6.5789 15.949 6.49988 15.7501 6.49988C15.5512 6.49988 15.3604 6.5789 15.2198 6.71955C15.0791 6.8602 15.0001 7.05097 15.0001 7.24988Z" fill="#9FA6B2"/>
<path d="M4.49984 7.24994C4.69874 7.2499 4.88947 7.17085 5.03009 7.03019L7.71959 4.34069C7.86254 4.20451 8.05241 4.12855 8.24984 4.12855C8.44727 4.12855 8.63714 4.20451 8.78009 4.34069L10.4091 5.96969C10.831 6.3915 11.4032 6.62846 11.9998 6.62846C12.5965 6.62846 13.1687 6.3915 13.5906 5.96969L17.7801 1.78019C17.9167 1.63874 17.9923 1.44929 17.9906 1.25264C17.9889 1.05599 17.91 0.867881 17.771 0.728825C17.6319 0.589769 17.4438 0.510892 17.2471 0.509184C17.0505 0.507475 16.861 0.583071 16.7196 0.719689L12.5301 4.90844C12.3894 5.04904 12.1987 5.12803 11.9998 5.12803C11.801 5.12803 11.6102 5.04904 11.4696 4.90844L9.84059 3.28019C9.41865 2.85838 8.84646 2.62142 8.24984 2.62142C7.65322 2.62142 7.08103 2.85838 6.65909 3.28019L3.96959 5.96969C3.86473 6.07458 3.79333 6.2082 3.7644 6.35367C3.73548 6.49913 3.75033 6.64991 3.80708 6.78693C3.86383 6.92396 3.95994 7.04108 4.08325 7.12349C4.20655 7.2059 4.35153 7.24991 4.49984 7.24994Z" fill="#9FA6B2"/>
</g>
<defs>
<clipPath id="clip0_0_167">
<rect width="18" height="18" fill="white" transform="translate(0 0.5)"/>
</clipPath>
</defs>
</svg>
