<svg width="18" height="18" viewBox="0 0 18 18" fill="none" xmlns="http://www.w3.org/2000/svg">
<g clip-path="url(#clip0_0_149)">
<path d="M8.25511 1.93365L8.24986 13.5121C8.24986 13.7111 8.32888 13.9018 8.46953 14.0425C8.61018 14.1831 8.80094 14.2621 8.99986 14.2621C9.19877 14.2621 9.38953 14.1831 9.53019 14.0425C9.67084 13.9018 9.74986 13.7111 9.74986 13.5121L9.75511 1.9464L11.9391 4.13115C12.0798 4.27175 12.2705 4.35074 12.4694 4.35074C12.6682 4.35074 12.859 4.27175 12.9996 4.13115C13.1402 3.9905 13.2192 3.79977 13.2192 3.6009C13.2192 3.40202 13.1402 3.21129 12.9996 3.07065L10.5914 0.659398C10.3824 0.450313 10.1343 0.28445 9.86123 0.171287C9.58815 0.0581237 9.29545 -0.00012207 8.99986 -0.00012207C8.70426 -0.00012207 8.41156 0.0581237 8.13849 0.171287C7.86541 0.28445 7.61731 0.450313 7.40836 0.659398L5.00011 3.0684C4.8595 3.20904 4.78052 3.39977 4.78052 3.59865C4.78052 3.79752 4.8595 3.98825 5.00011 4.1289C5.14075 4.2695 5.33148 4.34849 5.53036 4.34849C5.72923 4.34849 5.91996 4.2695 6.06061 4.1289L8.25511 1.93365Z" fill="#ECC94B"/>
<path d="M16.5 12.7495V15.7495C16.5 15.9484 16.421 16.1392 16.2803 16.2798C16.1397 16.4205 15.9489 16.4995 15.75 16.4995H2.25C2.05109 16.4995 1.86032 16.4205 1.71967 16.2798C1.57902 16.1392 1.5 15.9484 1.5 15.7495V12.7495C1.5 12.5506 1.42098 12.3598 1.28033 12.2192C1.13968 12.0785 0.948912 11.9995 0.75 11.9995C0.551088 11.9995 0.360322 12.0785 0.21967 12.2192C0.0790176 12.3598 0 12.5506 0 12.7495L0 15.7495C0 16.3462 0.237053 16.9185 0.65901 17.3405C1.08097 17.7624 1.65326 17.9995 2.25 17.9995H15.75C16.3467 17.9995 16.919 17.7624 17.341 17.3405C17.7629 16.9185 18 16.3462 18 15.7495V12.7495C18 12.5506 17.921 12.3598 17.7803 12.2192C17.6397 12.0785 17.4489 11.9995 17.25 11.9995C17.0511 11.9995 16.8603 12.0785 16.7197 12.2192C16.579 12.3598 16.5 12.5506 16.5 12.7495Z" fill="#ECC94B"/>
</g>
<defs>
<clipPath id="clip0_0_149">
<rect width="18" height="18" fill="white"/>
</clipPath>
</defs>
</svg>
