<svg width="18" height="19" viewBox="0 0 18 19" fill="none" xmlns="http://www.w3.org/2000/svg">
<g clip-path="url(#clip0_0_183)">
<path d="M9.00012 6.50049C8.40678 6.50049 7.82676 6.67644 7.33341 7.00608C6.84007 7.33572 6.45555 7.80426 6.22848 8.35244C6.00142 8.90062 5.94201 9.50382 6.05777 10.0858C6.17352 10.6677 6.45925 11.2023 6.8788 11.6218C7.29836 12.0414 7.83291 12.3271 8.41485 12.4428C8.9968 12.5586 9.6 12.4992 10.1482 12.2721C10.6964 12.0451 11.1649 11.6605 11.4945 11.1672C11.8242 10.6739 12.0001 10.0938 12.0001 9.50049C12.0001 8.70484 11.6841 7.94178 11.1214 7.37917C10.5588 6.81656 9.79577 6.50049 9.00012 6.50049ZM9.00012 11.0005C8.70345 11.0005 8.41344 10.9125 8.16677 10.7477C7.92009 10.5829 7.72784 10.3486 7.6143 10.0745C7.50077 9.80042 7.47107 9.49882 7.52895 9.20785C7.58682 8.91688 7.72968 8.64961 7.93946 8.43983C8.14924 8.23005 8.41652 8.08719 8.70749 8.02931C8.99846 7.97143 9.30006 8.00114 9.57415 8.11467C9.84824 8.2282 10.0825 8.42046 10.2473 8.66713C10.4121 8.91381 10.5001 9.20382 10.5001 9.50049C10.5001 9.89831 10.3421 10.2798 10.0608 10.5611C9.77948 10.8425 9.39795 11.0005 9.00012 11.0005Z" fill="#9FA6B2"/>
<path d="M15.9706 10.925L15.6376 10.733C15.7875 9.91733 15.7875 9.08117 15.6376 8.2655L15.9706 8.0735C16.2267 7.92576 16.4511 7.72903 16.6312 7.49455C16.8112 7.26006 16.9433 6.9924 17.0199 6.70686C17.0966 6.42132 17.1162 6.12349 17.0777 5.83037C17.0392 5.53725 16.9433 5.25458 16.7956 4.9985C16.6479 4.74242 16.4511 4.51795 16.2166 4.3379C15.9822 4.15785 15.7145 4.02576 15.429 3.94915C15.1434 3.87254 14.8456 3.85292 14.5525 3.89142C14.2593 3.92991 13.9767 4.02576 13.7206 4.1735L13.3868 4.36625C12.7565 3.82769 12.0321 3.41019 11.2501 3.13475V2.75C11.2501 2.15326 11.013 1.58097 10.5911 1.15901C10.1691 0.737053 9.59683 0.5 9.00009 0.5C8.40336 0.5 7.83106 0.737053 7.4091 1.15901C6.98715 1.58097 6.75009 2.15326 6.75009 2.75V3.13475C5.96813 3.41118 5.24398 3.8297 4.61409 4.36925L4.27884 4.175C3.76167 3.87663 3.14715 3.79593 2.57048 3.95065C1.99381 4.10536 1.50221 4.48283 1.20384 5C0.905475 5.51717 0.824772 6.13169 0.97949 6.70836C1.13421 7.28504 1.51167 7.77663 2.02884 8.075L2.36184 8.267C2.21193 9.08267 2.21193 9.91883 2.36184 10.7345L2.02884 10.9265C1.51167 11.2249 1.13421 11.7165 0.97949 12.2931C0.824772 12.8698 0.905475 13.4843 1.20384 14.0015C1.50221 14.5187 1.99381 14.8961 2.57048 15.0509C3.14715 15.2056 3.76167 15.1249 4.27884 14.8265L4.61259 14.6338C5.24317 15.1724 5.96783 15.5899 6.75009 15.8653V16.25C6.75009 16.8467 6.98715 17.419 7.4091 17.841C7.83106 18.2629 8.40336 18.5 9.00009 18.5C9.59683 18.5 10.1691 18.2629 10.5911 17.841C11.013 17.419 11.2501 16.8467 11.2501 16.25V15.8653C12.0321 15.5888 12.7562 15.1703 13.3861 14.6308L13.7213 14.8243C14.2385 15.1226 14.853 15.2033 15.4297 15.0486C16.0064 14.8939 16.498 14.5164 16.7963 13.9993C17.0947 13.4821 17.1754 12.8676 17.0207 12.2909C16.866 11.7142 16.4885 11.2226 15.9713 10.9243L15.9706 10.925ZM14.0596 8.093C14.3136 9.0133 14.3136 9.9852 14.0596 10.9055C14.0152 11.0657 14.0254 11.2361 14.0883 11.3899C14.1513 11.5437 14.2636 11.6722 14.4076 11.7553L15.2206 12.2248C15.393 12.3242 15.5187 12.4881 15.5703 12.6803C15.6218 12.8725 15.5949 13.0773 15.4955 13.2496C15.396 13.422 15.2322 13.5478 15.04 13.5993C14.8478 13.6509 14.643 13.624 14.4706 13.5245L13.6561 13.0535C13.512 12.9701 13.3443 12.9369 13.1793 12.9593C13.0143 12.9817 12.8615 13.0584 12.7448 13.1773C12.0773 13.8587 11.2363 14.345 10.3126 14.5835C10.1514 14.625 10.0085 14.7189 9.90654 14.8504C9.80456 14.982 9.74926 15.1438 9.74934 15.3103V16.25C9.74934 16.4489 9.67033 16.6397 9.52967 16.7803C9.38902 16.921 9.19826 17 8.99934 17C8.80043 17 8.60967 16.921 8.46901 16.7803C8.32836 16.6397 8.24934 16.4489 8.24934 16.25V15.311C8.24943 15.1445 8.19412 14.9828 8.09215 14.8512C7.99017 14.7196 7.84732 14.6257 7.68609 14.5843C6.76235 14.3448 5.92159 13.8575 5.25459 13.175C5.13799 13.0562 4.98515 12.9795 4.82016 12.9571C4.65517 12.9347 4.48742 12.9678 4.34334 13.0513L3.53034 13.5215C3.44501 13.5715 3.35064 13.6042 3.25264 13.6176C3.15464 13.631 3.05496 13.6249 2.95933 13.5996C2.86371 13.5743 2.77403 13.5303 2.69546 13.4703C2.61689 13.4102 2.55098 13.3352 2.50152 13.2495C2.45206 13.1638 2.42004 13.0692 2.40729 12.9712C2.39454 12.8731 2.40132 12.7734 2.42724 12.678C2.45315 12.5825 2.49769 12.4931 2.55829 12.415C2.61889 12.3368 2.69436 12.2714 2.78034 12.2225L3.59334 11.753C3.7373 11.6699 3.8496 11.5414 3.91259 11.3876C3.97558 11.2338 3.98569 11.0634 3.94134 10.9033C3.68736 9.98295 3.68736 9.01105 3.94134 8.09075C3.98489 7.93091 3.9743 7.76115 3.9112 7.60797C3.84811 7.45479 3.73608 7.3268 3.59259 7.244L2.77959 6.7745C2.60724 6.67504 2.48145 6.51119 2.4299 6.31899C2.37835 6.12679 2.40526 5.92198 2.50472 5.74963C2.60417 5.57727 2.76803 5.45148 2.96023 5.39993C3.15243 5.34838 3.35724 5.37529 3.52959 5.47475L4.34409 5.94575C4.48778 6.02939 4.65518 6.06291 4.81999 6.04105C4.9848 6.0192 5.13768 5.9432 5.25459 5.825C5.92216 5.14351 6.76316 4.65727 7.68684 4.41875C7.84857 4.37717 7.99179 4.28281 8.09382 4.15063C8.19585 4.01844 8.25084 3.85598 8.25009 3.689V2.75C8.25009 2.55109 8.32911 2.36032 8.46976 2.21967C8.61042 2.07902 8.80118 2 9.00009 2C9.19901 2 9.38977 2.07902 9.53042 2.21967C9.67108 2.36032 9.75009 2.55109 9.75009 2.75V3.689C9.75001 3.85547 9.80531 4.01723 9.90729 4.14881C10.0093 4.28039 10.1521 4.3743 10.3133 4.41575C11.2374 4.65511 12.0784 5.14241 12.7456 5.825C12.8622 5.94385 13.015 6.02052 13.18 6.04293C13.345 6.06533 13.5128 6.0322 13.6568 5.94875L14.4698 5.4785C14.5552 5.42848 14.6496 5.39583 14.7476 5.38243C14.8455 5.36903 14.9452 5.37514 15.0409 5.40043C15.1365 5.42571 15.2262 5.46965 15.3047 5.52974C15.3833 5.58982 15.4492 5.66485 15.4987 5.7505C15.5481 5.83616 15.5801 5.93076 15.5929 6.02884C15.6056 6.12693 15.5989 6.22657 15.573 6.32202C15.547 6.41747 15.5025 6.50686 15.4419 6.58503C15.3813 6.6632 15.3058 6.72861 15.2198 6.7775L14.4068 7.247C14.2636 7.33003 14.1519 7.45811 14.0891 7.61127C14.0263 7.76443 14.0159 7.93408 14.0596 8.09375V8.093Z" fill="#9FA6B2"/>
</g>
<defs>
<clipPath id="clip0_0_183">
<rect width="18" height="18" fill="white" transform="translate(0 0.5)"/>
</clipPath>
</defs>
</svg>
