<svg width="180" height="129" viewBox="0 0 180 129" fill="none" xmlns="http://www.w3.org/2000/svg">
<path d="M83.5714 12.8571L74.4801 3.76586C72.0688 1.3545 68.7986 0 65.3886 0H6.42857C2.87807 0 0 2.87807 0 6.42857V126.429C0 127.612 0.959357 128.571 2.14286 128.571H177.857C179.041 128.571 180 127.612 180 126.429V19.2857C180 15.7352 177.122 12.8571 173.571 12.8571H83.5714Z" fill="#FFB900"/>
<path d="M83.5714 12.8572L74.4801 21.9485C72.0688 24.3598 68.7986 25.7143 65.3886 25.7143H0V126.429C0 127.612 0.959357 128.571 2.14286 128.571H177.857C179.041 128.571 180 127.612 180 126.429V19.2857C180 15.7352 177.122 12.8572 173.571 12.8572H83.5714Z" fill="#FFD75E"/>
<path d="M83.5714 12.8572L74.4801 21.9485C72.0688 24.3598 68.7986 25.7143 65.3886 25.7143H0V126.429C0 127.612 0.959357 128.571 2.14286 128.571H177.857C179.041 128.571 180 127.612 180 126.429V19.2857C180 15.7352 177.122 12.8572 173.571 12.8572H83.5714Z" fill="url(#paint0_linear_0_252)"/>
<path opacity="0.4" d="M0 25.7143V27.8572H65.5725C69.5507 27.8572 73.3661 26.2768 76.179 23.4637L86.7857 12.8572H83.5714L74.4801 21.9485C72.0688 24.3598 68.7986 25.7143 65.3886 25.7143H0Z" fill="white"/>
<path d="M177.857 128.571H2.14286C0.959357 128.571 0 127.612 0 126.429H180C180 127.612 179.041 128.571 177.857 128.571Z" fill="#DA7B16"/>
<defs>
<linearGradient id="paint0_linear_0_252" x1="90" y1="12.8572" x2="90" y2="128.571" gradientUnits="userSpaceOnUse">
<stop stop-color="white" stop-opacity="0"/>
<stop offset="1" stop-color="#FFD75E" stop-opacity="0.3"/>
</linearGradient>
</defs>
</svg>
