<svg width="102" height="94" viewBox="0 0 102 94" fill="none" xmlns="http://www.w3.org/2000/svg">
<path d="M63.4342 44.6391L23.4941 37.5908V89.6704C23.4941 92.0488 25.4222 93.9768 27.8006 93.9768H96.7185C99.0969 93.9768 101.025 92.0488 101.025 89.6704V70.4827L63.4342 44.6391Z" fill="#185C37"/>
<path d="M63.4342 0H27.8006C25.4222 0 23.4941 1.92807 23.4941 4.30647V23.4942L63.4342 46.9884L84.579 54.0366L101.025 46.9884V23.4942L63.4342 0Z" fill="#21A366"/>
<path d="M23.4941 23.4941H63.4342V46.9883H23.4941V23.4941Z" fill="#107C41"/>
<path opacity="0.1" d="M52.0795 18.7949H23.4941V77.5304H52.0795C54.4547 77.5227 56.3783 75.5991 56.386 73.2239V23.1014C56.3783 20.7262 54.4547 18.8026 52.0795 18.7949Z" fill="black"/>
<path opacity="0.2" d="M49.7301 21.1445H23.4941V79.88H49.7301C52.1053 79.8723 54.0289 77.9487 54.0366 75.5735V25.451C54.0289 23.0758 52.1053 21.1523 49.7301 21.1445Z" fill="black"/>
<path opacity="0.2" d="M49.7301 21.1445H23.4941V75.1811H49.7301C52.1053 75.1734 54.0289 73.2499 54.0366 70.8747V25.451C54.0289 23.0758 52.1053 21.1523 49.7301 21.1445Z" fill="black"/>
<path opacity="0.2" d="M47.3807 21.1445H23.4941V75.1811H47.3807C49.7559 75.1734 51.6794 73.2499 51.6872 70.8747V25.451C51.6794 23.0758 49.7559 21.1523 47.3807 21.1445Z" fill="black"/>
<path d="M4.30647 21.1445H47.3807C49.7591 21.1445 51.6871 23.0726 51.6871 25.451V68.5252C51.6871 70.9036 49.7591 72.8317 47.3807 72.8317H4.30647C1.92807 72.8317 0 70.9037 0 68.5252V25.451C0 23.0726 1.92807 21.1445 4.30647 21.1445Z" fill="url(#paint0_linear_0_228)"/>
<path d="M13.3376 60.9863L22.397 46.9485L14.0965 32.9883H20.7735L25.3032 41.9161C25.7214 42.7642 26.008 43.3938 26.1631 43.8097H26.2219C26.5194 43.133 26.8327 42.476 27.1616 41.8385L32.0038 32.993H38.1334L29.6214 46.871L38.3496 60.9863H31.8276L26.5954 51.1869C26.349 50.77 26.1398 50.332 25.9705 49.8783H25.893C25.7397 50.3228 25.5364 50.7484 25.2868 51.147L19.8996 60.9863H13.3376Z" fill="white"/>
<path d="M96.7185 0H63.4343V23.4942H101.025V4.30647C101.025 1.92807 99.097 0 96.7185 0Z" fill="#33C481"/>
<path d="M63.4343 46.9883H101.025V70.4825H63.4343V46.9883Z" fill="#107C41"/>
<defs>
<linearGradient id="paint0_linear_0_228" x1="8.97911" y1="17.7795" x2="42.7081" y2="76.1967" gradientUnits="userSpaceOnUse">
<stop stop-color="#18884F"/>
<stop offset="0.5" stop-color="#117E43"/>
<stop offset="1" stop-color="#0B6631"/>
</linearGradient>
</defs>
</svg>
