<svg width="16" height="19" viewBox="0 0 16 19" fill="none" xmlns="http://www.w3.org/2000/svg">
<path fill-rule="evenodd" clip-rule="evenodd" d="M6.85714 0C6.42426 0 6.02853 0.244574 5.83494 0.631756L5.00796 2.28571H1.14286C0.511675 2.28571 0 2.79739 0 3.42857C0 4.05975 0.511675 4.57143 1.14286 4.57143L1.14286 16C1.14286 17.2624 2.16621 18.2857 3.42857 18.2857H12.5714C13.8338 18.2857 14.8571 17.2624 14.8571 16V4.57143C15.4883 4.57143 16 4.05975 16 3.42857C16 2.79739 15.4883 2.28571 14.8571 2.28571H10.992L10.1651 0.631756C9.97147 0.244574 9.57574 0 9.14286 0H6.85714ZM4.57143 6.85714C4.57143 6.22596 5.0831 5.71429 5.71429 5.71429C6.34547 5.71429 6.85714 6.22596 6.85714 6.85714V13.7143C6.85714 14.3455 6.34547 14.8571 5.71429 14.8571C5.0831 14.8571 4.57143 14.3455 4.57143 13.7143V6.85714ZM10.2857 5.71429C9.65453 5.71429 9.14286 6.22596 9.14286 6.85714V13.7143C9.14286 14.3455 9.65453 14.8571 10.2857 14.8571C10.9169 14.8571 11.4286 14.3455 11.4286 13.7143V6.85714C11.4286 6.22596 10.9169 5.71429 10.2857 5.71429Z" fill="#E02324"/>
</svg>
