<svg width="142" height="38" viewBox="0 0 142 38" fill="none" xmlns="http://www.w3.org/2000/svg">
<path d="M13.9844 31.4378C14.1789 30.937 14.2717 30.4024 14.2572 29.8652C14.2869 28.3767 14.6847 26.9186 15.4152 25.6212C16.1439 24.3261 17.1831 23.2323 18.4392 22.4382C18.9043 22.1888 19.314 21.8475 19.6434 21.4351C19.9729 21.0228 20.2152 20.5478 20.3558 20.0391C20.4964 19.5304 20.5323 18.9984 20.4614 18.4754C20.3905 17.9524 20.2142 17.4492 19.9432 16.9962C19.5812 16.3912 19.0602 15.8952 18.4392 15.5652C18.0832 15.3182 17.7412 15.0522 17.4152 14.7672L16.5982 13.9672C15.1012 12.3934 14.2616 10.3073 14.2512 8.13524C14.2667 7.59801 14.1744 7.06312 13.9798 6.56213C13.7852 6.06114 13.4923 5.60419 13.1182 5.21824C12.7459 4.83273 12.2996 4.52619 11.8062 4.31693C11.3128 4.10766 10.7822 3.99996 10.2462 4.00024C9.71055 4.001 9.18046 4.10918 8.68733 4.31839C8.1942 4.5276 7.74803 4.83358 7.37522 5.21824C7.00185 5.60487 6.70933 6.06208 6.51478 6.56311C6.32024 7.06415 6.22758 7.59896 6.24222 8.13624C6.25096 8.83368 6.44306 9.51654 6.79922 10.1162C7.15416 10.7149 7.66092 11.2093 8.26822 11.5492C10.7272 13.1052 12.4382 16.0802 12.4382 19.0062C12.4322 21.1595 11.6086 23.23 10.1342 24.7992L8.27422 26.4512C7.66722 26.7902 7.16022 27.2842 6.80422 27.8842C6.44722 28.4832 6.25622 29.1672 6.24722 29.8652C6.23193 30.4025 6.32429 30.9373 6.51887 31.4383C6.71346 31.9392 7.00632 32.3962 7.38022 32.7822C7.75266 33.1677 8.19889 33.4741 8.69232 33.6834C9.18575 33.8927 9.71626 34.0004 10.2522 34.0002C10.7881 33.9996 11.3183 33.8915 11.8117 33.6823C12.305 33.4731 12.7513 33.167 13.1242 32.7822C13.4974 32.3957 13.7899 31.9387 13.9844 31.4378Z" fill="#E9AD38"/>
<path d="M19.4162 10.3602C18.9752 9.69824 18.7402 8.91924 18.7402 8.12324C18.7409 7.05697 19.1633 6.03425 19.9152 5.27824C20.569 4.62048 21.4313 4.21075 22.3542 4.11933C23.2771 4.02792 24.2031 4.26053 24.9732 4.77724C25.6329 5.22015 26.1465 5.84861 26.4492 6.58324C26.752 7.31872 26.831 8.12717 26.6764 8.90734C26.5218 9.68752 26.1405 10.4048 25.5802 10.9692C25.0216 11.5322 24.308 11.9159 23.5303 12.0714C22.7527 12.2269 21.9463 12.1471 21.2142 11.8422C20.4814 11.5371 19.8557 11.0213 19.4162 10.3602Z" fill="#E9AD38"/>
<path d="M20.5212 26.5182C21.1802 26.0762 21.9552 25.8402 22.7472 25.8402V25.8382C23.2737 25.8389 23.7949 25.9434 24.2809 26.1459C24.7668 26.3484 25.2081 26.6449 25.5792 27.0182C26.2352 27.6781 26.6432 28.5442 26.7343 29.4702C26.8254 30.3962 26.594 31.3252 26.0792 32.1002C25.6398 32.7622 25.0137 33.2787 24.2802 33.5842C23.5481 33.8891 22.7418 33.9689 21.9641 33.8134C21.1865 33.6579 20.4728 33.2742 19.9142 32.7112C19.3537 32.1467 18.9723 31.4293 18.8177 30.6489C18.6631 29.8685 18.7423 29.0598 19.0452 28.3242C19.348 27.5896 19.8616 26.9612 20.5212 26.5182Z" fill="#E9AD38"/>
<path d="M32.3242 16.7582C32.7641 17.42 32.9991 18.1977 32.9992 18.9934C32.9986 20.0599 32.5762 21.0829 31.8242 21.8392C31.453 22.2125 31.0117 22.5088 30.5258 22.7113C30.0398 22.9138 29.5187 23.0184 28.9922 23.0192C28.1994 23.0193 27.4245 22.7832 26.7662 22.3412C26.1066 21.8983 25.5929 21.2699 25.2902 20.5352C24.9873 19.7996 24.9081 18.991 25.0627 18.2106C25.2173 17.4302 25.5987 16.7128 26.1592 16.1482C26.7179 15.5851 27.4317 15.2013 28.2096 15.0458C28.9874 14.8903 29.794 14.9702 30.5262 15.2752C31.2592 15.5807 31.8849 16.0968 32.3242 16.7582Z" fill="#E9AD38"/>
<path d="M1.78026 15.6472C2.43926 15.2052 3.21326 14.9692 4.00626 14.9692C4.53261 14.9704 5.05357 15.0752 5.53934 15.2779C6.02511 15.4805 6.46617 15.777 6.83726 16.1502C7.49287 16.8099 7.90068 17.6756 7.99178 18.6012C8.08288 19.5268 7.85169 20.4554 7.33726 21.2302C6.89793 21.8916 6.27217 22.4078 5.53926 22.7132C4.8069 23.0166 4.00093 23.0956 3.22361 22.9402C2.44629 22.7847 1.73266 22.4019 1.17326 21.8402C0.612965 21.2758 0.231653 20.5585 0.0770756 19.7783C-0.0775017 18.9982 0.00152573 18.1897 0.304262 17.4542C0.606855 16.7193 1.12048 16.0905 1.78026 15.6472Z" fill="#E9AD38"/>
<path d="M57.6633 14.1362L55.6233 21.5282L53.4393 14.1362H50.5113L48.3273 21.5042L46.2873 14.1362H42.9993L46.8153 26.1362H49.7673L51.9753 18.8642L54.1833 26.1362H57.1353L60.9513 14.1362H57.6633V14.1362ZM67.8633 26.4722C71.3913 26.4722 74.2233 23.7122 74.2233 20.1362C74.2233 16.5602 71.3913 13.8002 67.8633 13.8002C64.3353 13.8002 61.5273 16.5602 61.5273 20.1362C61.5273 23.7122 64.3353 26.4722 67.8633 26.4722ZM67.8633 23.4482C66.0393 23.4482 64.6233 22.0802 64.6233 20.1362C64.6233 18.1922 66.0393 16.8242 67.8633 16.8242C69.7113 16.8242 71.1273 18.1922 71.1273 20.1362C71.1273 22.0802 69.7113 23.4482 67.8633 23.4482ZM79.4973 16.2002V14.1362H76.4013V26.1362H79.4973V20.4002C79.4973 17.8802 81.5373 17.1602 83.1453 17.3522V13.8962C81.6333 13.8962 80.1213 14.5682 79.4973 16.2002ZM96.0193 26.1362L91.0523 20.0642L95.8763 14.1362H92.1793L88.0513 19.4162V9.33624H84.9553V26.1362H88.0513V20.6882L92.4193 26.1362H96.0193V26.1362ZM104.021 9.00024C100.205 9.00024 98.3813 10.7042 98.3813 14.0162V14.1362H96.6533V17.1122H98.3813V26.1362H101.477V17.1122H103.469V14.1362H101.477V14.0162C101.477 12.3842 102.413 11.7122 104.021 11.7122C104.333 11.7122 104.669 11.7122 105.005 11.7362V26.1362H108.101V9.50424C106.781 9.24024 105.533 9.00024 104.021 9.00024ZM116.636 26.4722C120.164 26.4722 122.996 23.7122 122.996 20.1362C122.996 16.5602 120.164 13.8002 116.636 13.8002C113.108 13.8002 110.3 16.5602 110.3 20.1362C110.3 23.7122 113.108 26.4722 116.636 26.4722ZM116.636 23.4482C114.812 23.4482 113.396 22.0802 113.396 20.1362C113.396 18.1922 114.812 16.8242 116.636 16.8242C118.484 16.8242 119.9 18.1922 119.9 20.1362C119.9 22.0802 118.484 23.4482 116.636 23.4482ZM138.218 14.1362L136.178 21.5282L133.994 14.1362H131.066L128.882 21.5042L126.842 14.1362H123.554L127.37 26.1362H130.322L132.53 18.8642L134.738 26.1362H137.69L141.506 14.1362H138.218V14.1362Z" fill="#0B1018"/>
</svg>
