<svg width="18" height="17" viewBox="0 0 18 17" fill="none" xmlns="http://www.w3.org/2000/svg">
<path d="M17.4501 6.30045C16.7733 5.19215 15.9196 4.20217 14.9228 3.36979L17.022 1.27056C17.1586 1.12916 17.2342 0.939782 17.2325 0.743208C17.2307 0.546633 17.1519 0.358593 17.0129 0.219589C16.8739 0.080584 16.6859 0.00173652 16.4893 2.83414e-05C16.2927 -0.00167984 16.1033 0.073888 15.9619 0.210456L13.679 2.49636C12.2638 1.65579 10.646 1.21768 9 1.22933C4.35847 1.22933 1.71345 4.40665 0.549881 6.30045C0.19041 6.88186 0 7.55192 0 8.23548C0 8.91905 0.19041 9.5891 0.549881 10.1705C1.2267 11.2788 2.08043 12.2688 3.07719 13.1012L0.977972 15.2004C0.906366 15.2696 0.84925 15.3523 0.809958 15.4438C0.770666 15.5352 0.749984 15.6336 0.749119 15.7332C0.748254 15.8327 0.767223 15.9314 0.80492 16.0236C0.842617 16.1157 0.898286 16.1994 0.968679 16.2698C1.03907 16.3402 1.12278 16.3959 1.21492 16.4336C1.30706 16.4713 1.40578 16.4902 1.50533 16.4894C1.60488 16.4885 1.70325 16.4678 1.79472 16.4285C1.88619 16.3892 1.96892 16.3321 2.03808 16.2605L4.32623 13.9724C5.73966 14.8128 7.35561 15.2516 9 15.2416C13.6415 15.2416 16.2866 12.0643 17.4501 10.1705C17.8096 9.5891 18 8.91905 18 8.23548C18 7.55192 17.8096 6.88186 17.4501 6.30045ZM1.82741 9.38556C1.61384 9.03997 1.50072 8.64174 1.50072 8.23548C1.50072 7.82923 1.61384 7.431 1.82741 7.08541C2.82754 5.46151 5.08795 2.72877 9 2.72877C10.2447 2.7218 11.472 3.02179 12.5732 3.6022L11.064 5.11139C10.3442 4.63352 9.48125 4.41939 8.62156 4.50535C7.76188 4.5913 6.95841 4.97204 6.34748 5.58297C5.73656 6.19389 5.35582 6.99736 5.26987 7.85705C5.18391 8.71673 5.39804 9.57968 5.87591 10.2995L4.14405 12.0313C3.22572 11.2889 2.44206 10.3939 1.82741 9.38556ZM11.2492 8.23548C11.2492 8.832 11.0122 9.40408 10.5904 9.82588C10.1686 10.2477 9.59652 10.4846 9 10.4846C8.66601 10.4834 8.33664 10.4065 8.03661 10.2597L11.0243 7.27209C11.171 7.57213 11.2479 7.90149 11.2492 8.23548ZM6.75083 8.23548C6.75083 7.63897 6.9878 7.06688 7.4096 6.64508C7.8314 6.22328 8.40348 5.98632 9 5.98632C9.33399 5.98761 9.66336 6.0645 9.96339 6.21123L6.97575 9.19887C6.82902 8.89884 6.75213 8.56947 6.75083 8.23548ZM16.1726 9.38556C15.1725 11.0095 12.9121 13.7422 9 13.7422C7.75526 13.7492 6.52799 13.4492 5.42682 12.8688L6.93601 11.3596C7.6558 11.8374 8.51875 12.0516 9.37844 11.9656C10.2381 11.8797 11.0416 11.4989 11.6525 10.888C12.2634 10.2771 12.6442 9.4736 12.7301 8.61392C12.8161 7.75423 12.602 6.89128 12.1241 6.1715L13.856 4.43964C14.7743 5.18207 15.5579 6.07707 16.1726 7.08541C16.3862 7.431 16.4993 7.82923 16.4993 8.23548C16.4993 8.64174 16.3862 9.03997 16.1726 9.38556Z" fill="#4B5563"/>
</svg>
