<svg width="18" height="17" viewBox="0 0 18 17" fill="none" xmlns="http://www.w3.org/2000/svg">
<path d="M12 11C12 11.1989 11.921 11.3897 11.7803 11.5303C11.6397 11.671 11.4489 11.75 11.25 11.75H9.75V13.25C9.75 13.4489 9.67098 13.6397 9.53033 13.7803C9.38968 13.921 9.19891 14 9 14C8.80109 14 8.61032 13.921 8.46967 13.7803C8.32902 13.6397 8.25 13.4489 8.25 13.25V11.75H6.75C6.55109 11.75 6.36032 11.671 6.21967 11.5303C6.07902 11.3897 6 11.1989 6 11C6 10.8011 6.07902 10.6103 6.21967 10.4697C6.36032 10.329 6.55109 10.25 6.75 10.25H8.25V8.75C8.25 8.55109 8.32902 8.36032 8.46967 8.21967C8.61032 8.07902 8.80109 8 9 8C9.19891 8 9.38968 8.07902 9.53033 8.21967C9.67098 8.36032 9.75 8.55109 9.75 8.75V10.25H11.25C11.4489 10.25 11.6397 10.329 11.7803 10.4697C11.921 10.6103 12 10.8011 12 11ZM18 5.75V13.25C17.9988 14.2442 17.6033 15.1973 16.9003 15.9003C16.1973 16.6033 15.2442 16.9988 14.25 17H3.75C2.7558 16.9988 1.80267 16.6033 1.09966 15.9003C0.396661 15.1973 0.00119089 14.2442 0 13.25L0 4.25C0.00119089 3.2558 0.396661 2.30267 1.09966 1.59966C1.80267 0.896661 2.7558 0.501191 3.75 0.5H5.646C5.99505 0.50029 6.33929 0.581409 6.65175 0.737L9.01875 1.925C9.12333 1.97519 9.238 2.00084 9.354 2H14.25C15.2442 2.00119 16.1973 2.39666 16.9003 3.09966C17.6033 3.80267 17.9988 4.7558 18 5.75ZM1.5 4.25V5H16.362C16.2074 4.56282 15.9216 4.18407 15.5435 3.91557C15.1655 3.64706 14.7137 3.50192 14.25 3.5H9.354C9.00495 3.49971 8.66071 3.41859 8.34825 3.263L5.98125 2.07875C5.87697 2.02726 5.7623 2.00032 5.646 2H3.75C3.15326 2 2.58097 2.23705 2.15901 2.65901C1.73705 3.08097 1.5 3.65326 1.5 4.25ZM16.5 13.25V6.5H1.5V13.25C1.5 13.8467 1.73705 14.419 2.15901 14.841C2.58097 15.2629 3.15326 15.5 3.75 15.5H14.25C14.8467 15.5 15.419 15.2629 15.841 14.841C16.2629 14.419 16.5 13.8467 16.5 13.25Z" fill="#252F3F"/>
</svg>
