<svg width="18" height="17" viewBox="0 0 18 17" fill="none" xmlns="http://www.w3.org/2000/svg">
<path d="M14.25 0.25H3.75C2.7558 0.251191 1.80267 0.646661 1.09966 1.34966C0.396661 2.05267 0.00119089 3.0058 0 4L0 13C0.00119089 13.9942 0.396661 14.9473 1.09966 15.6503C1.80267 16.3533 2.7558 16.7488 3.75 16.75H14.25C15.2442 16.7488 16.1973 16.3533 16.9003 15.6503C17.6033 14.9473 17.9988 13.9942 18 13V4C17.9988 3.0058 17.6033 2.05267 16.9003 1.34966C16.1973 0.646661 15.2442 0.251191 14.25 0.25ZM3.75 1.75H14.25C14.6991 1.75088 15.1376 1.88614 15.5092 2.13835C15.8808 2.39057 16.1684 2.74821 16.335 3.16525L10.5915 8.9095C10.1688 9.33049 9.59656 9.56685 9 9.56685C8.40344 9.56685 7.83118 9.33049 7.4085 8.9095L1.665 3.16525C1.83161 2.74821 2.11921 2.39057 2.49079 2.13835C2.86236 1.88614 3.30091 1.75088 3.75 1.75ZM14.25 15.25H3.75C3.15326 15.25 2.58097 15.0129 2.15901 14.591C1.73705 14.169 1.5 13.5967 1.5 13V5.125L6.348 9.97C7.05197 10.6722 8.00569 11.0665 9 11.0665C9.99431 11.0665 10.948 10.6722 11.652 9.97L16.5 5.125V13C16.5 13.5967 16.2629 14.169 15.841 14.591C15.419 15.0129 14.8467 15.25 14.25 15.25Z" fill="#4B5563"/>
</svg>
